<?xml version="1.0" standalone="no"?>
<!DOCTYPE svg PUBLIC "-//W3C//DTD SVG 20010904//EN"
 "http://www.w3.org/TR/2001/REC-SVG-20010904/DTD/svg10.dtd">
<svg version="1.0" xmlns="http://www.w3.org/2000/svg"
 width="16.000000pt" height="16.000000pt" viewBox="0 0 16.000000 16.000000"
 preserveAspectRatio="xMidYMid meet">
<metadata>
Created by potrace 1.11, written by Peter Selinger 2001-2013
</metadata>
<g transform="translate(0.000000,16.000000) scale(0.006751,-0.006751)"
fill="#000000" stroke="none">
<path d="M1100 2050 c-82 -38 -85 -39 -170 -33 l-87 5 -39 -43 c-78 -87 -92
-98 -141 -112 -28 -8 -64 -22 -82 -31 -30 -16 -61 -61 -61 -90 0 -38 -41 -104
-88 -141 -57 -46 -80 -79 -77 -115 1 -14 4 -45 6 -70 l4 -45 -174 -2 c-95 -1
-174 -3 -176 -5 -2 -2 34 -43 82 -91 l85 -87 -83 -86 c-46 -47 -85 -88 -87
-92 -1 -4 76 -7 170 -6 96 1 176 -3 179 -8 3 -5 3 -27 -1 -48 -9 -48 -4 -96
13 -120 7 -11 36 -37 64 -59 50 -40 58 -54 84 -140 20 -67 41 -86 121 -112 43
-13 83 -34 98 -49 14 -14 43 -46 64 -69 l40 -43 89 4 c87 5 92 4 160 -30 39
-19 83 -35 98 -34 15 0 56 16 92 35 62 33 67 34 156 29 l93 -4 66 70 c47 49
79 74 107 82 117 36 133 51 156 146 10 41 24 61 86 121 l75 72 -4 78 -3 78
173 0 c94 0 172 2 172 5 0 2 -39 44 -87 92 l-86 87 86 88 c47 48 84 89 82 91
-2 2 -80 4 -174 4 l-171 0 6 79 6 79 -34 33 c-18 17 -50 47 -70 64 -29 26 -42
49 -59 104 -12 40 -30 80 -39 89 -10 10 -50 28 -90 41 -52 16 -80 32 -103 57
-18 19 -46 51 -64 70 l-31 34 -89 -5 c-82 -5 -92 -3 -151 24 -110 52 -101 51
-192 9z"/>
</g>
</svg>
