<?xml version="1.0" encoding="UTF-8" standalone="no"?>
<!-- Created with Inkscape (http://www.inkscape.org/) -->
<svg xmlns:svg="http://www.w3.org/2000/svg" xmlns="http://www.w3.org/2000/svg" version="1.0" width="1024" height="181" viewBox="0 0 187.28125 33.09375" id="svg5047">
  <defs id="defs5049"/>
  <g transform="translate(-417.78125,-612.96875)" id="layer1">
    <path d="M 474.3125,612.96875 C 470.61049,612.96876 468.8685,613.35275 466.9375,614.09375 L 466.59375,614.21875 L 468.6875,617.9375 L 468.9375,617.84375 C 470.36151,617.26076 471.934,617.0625 474.875,617.0625 L 478,617.0625 C 482.57001,617.06251 485.1875,619.33775 485.1875,623.34375 L 485.1875,635.65625 C 485.18749,639.65927 482.57,641.9375 478,641.9375 L 472.90625,641.9375 C 468.22225,641.93749 465.9375,640.06025 465.9375,636.15625 C 465.93749,632.28325 468.22225,630.40625 472.90625,630.40625 L 480,630.40625 L 480,626.28125 L 472.6875,626.28125 C 465.7355,626.28127 461.75,629.8975 461.75,636.1875 C 461.74999,642.26952 465.9415,646.0625 472.6875,646.0625 L 478.1875,646.0625 C 485.86449,646.06248 489.375,640.9385 489.375,636.1875 L 489.375,622.8125 C 489.37501,618.06248 485.8645,612.96875 478.1875,612.96875 L 474.3125,612.96875 z M 505.25,612.96875 C 497.572,612.96876 494.0625,618.0625 494.0625,622.8125 L 494.0625,636.1875 C 494.0625,640.93852 497.572,646.0625 505.25,646.0625 L 510,646.0625 C 513.911,646.06248 516.47425,645.49125 518.53125,644.15625 L 518.78125,643.96875 L 516.40625,640.5 L 516.15625,640.65625 C 514.62125,641.58622 512.67875,641.9375 509.46875,641.9375 L 505.4375,641.9375 C 500.8025,641.93753 498.25,639.71825 498.25,635.65625 L 498.25,623.34375 C 498.24999,619.27976 500.8035,617.0625 505.4375,617.0625 L 509.46875,617.0625 C 512.67476,617.06249 514.61525,617.444 516.15625,618.375 L 516.40625,618.53125 L 518.78125,615.03125 L 518.53125,614.875 C 516.47426,613.54099 513.915,612.96875 510,612.96875 L 505.25,612.96875 z M 532.65625,612.96875 C 524.95323,612.96876 521.4375,618.0625 521.4375,622.8125 L 521.4375,636.1875 C 521.43749,640.93852 524.947,646.0625 532.625,646.0625 L 538.125,646.0625 C 545.80401,646.06248 549.28125,640.9385 549.28125,636.1875 L 549.28125,622.8125 C 549.28124,618.06348 545.7705,612.96875 538.0625,612.96875 L 532.65625,612.96875 z M 565.125,613.03125 C 558.49999,613.03128 554.21875,616.79175 554.21875,622.59375 L 554.21875,645.90625 L 558.40625,645.90625 L 558.40625,623.125 C 558.40625,619.094 560.6585,617.125 565.3125,617.125 C 569.72647,617.12501 572.15625,619.135 572.15625,622.75 L 572.15625,645.90625 L 576.34375,645.90625 L 576.34375,622.75 C 576.34376,619.13503 578.7735,617.125 583.1875,617.125 C 587.84347,617.12501 590.125,619.094 590.125,623.125 L 590.125,645.90625 L 594.28125,645.90625 L 594.28125,622.59375 C 594.28124,616.79177 589.997,613.03125 583.375,613.03125 C 578.95503,613.03128 576.286,614.124 574.25,616.75 C 572.21698,614.124 569.54,613.03125 565.125,613.03125 z M 417.78125,613.1875 L 417.78125,636.5 C 417.78125,642.30099 422.0625,646.0625 428.6875,646.0625 C 433.1025,646.0625 435.7795,644.97275 437.8125,642.34375 C 439.84649,644.97275 442.5215,646.0625 446.9375,646.0625 C 453.55951,646.0625 457.84375,642.301 457.84375,636.5 L 457.84375,613.1875 L 453.6875,613.1875 L 453.6875,635.96875 C 453.6875,639.99775 451.404,641.9375 446.75,641.9375 C 442.337,641.93753 439.90625,639.95575 439.90625,636.34375 L 439.90625,613.1875 L 435.75,613.1875 L 435.75,636.34375 C 435.75,639.95477 433.32025,641.9375 428.90625,641.9375 C 424.25225,641.93753 421.96875,639.99775 421.96875,635.96875 L 421.96875,613.1875 L 417.78125,613.1875 z M 601.875,613.1875 C 600.997,613.1875 600.24498,613.50397 599.625,614.125 C 599.002,614.749 598.68751,615.49399 598.6875,616.375 C 598.6875,617.264 599.00901,618.03226 599.625,618.65625 C 600.243,619.28125 600.98999,619.59373 601.875,619.59375 C 602.758,619.59375 603.50198,619.28126 604.125,618.65625 C 604.75,618.02825 605.06252,617.25999 605.0625,616.375 C 605.0625,615.492 604.74998,614.74697 604.125,614.125 C 603.502,613.504 602.75799,613.18753 601.875,613.1875 z M 601.875,613.625 C 602.635,613.625 603.2765,613.89647 603.8125,614.4375 C 604.3445,614.9745 604.62497,615.64424 604.625,616.40625 C 604.625,617.17125 604.3445,617.80373 603.8125,618.34375 C 603.2805,618.88375 602.63799,619.15626 601.875,619.15625 C 601.114,619.15625 600.46951,618.88373 599.9375,618.34375 C 599.4075,617.80375 599.12502,617.17124 599.125,616.40625 C 599.125,615.64525 599.4045,614.97447 599.9375,614.4375 C 600.4735,613.8965 601.11899,613.62503 601.875,613.625 z M 600.59375,614.625 L 600.59375,618.125 L 601.1875,618.125 L 601.1875,616.75 L 601.6875,616.75 C 602.0175,616.75 602.244,616.80101 602.375,616.875 C 602.595,617.005 602.68752,617.25027 602.6875,617.65625 L 602.6875,617.9375 L 602.71875,618.0625 C 602.72275,618.0785 602.71474,618.08175 602.71875,618.09375 C 602.72275,618.10575 602.71377,618.11199 602.71875,618.125 L 603.3125,618.125 L 603.28125,618.09375 C 603.26525,618.06275 603.25599,618.00027 603.25,617.90625 C 603.243,617.81425 603.24997,617.73823 603.25,617.65625 L 603.25,617.375 C 603.25,617.197 603.19148,617.02972 603.0625,616.84375 C 602.9355,616.65675 602.74273,616.543 602.46875,616.5 C 602.68775,616.465 602.85077,616.42074 602.96875,616.34375 C 603.19875,616.19475 603.31248,615.93798 603.3125,615.625 C 603.3125,615.181 603.111,614.89997 602.75,614.75 C 602.548,614.665 602.2475,614.62501 601.8125,614.625 L 600.59375,614.625 z M 601.1875,615.03125 L 601.71875,615.03125 C 602.06075,615.03125 602.31276,615.09748 602.46875,615.1875 C 602.62475,615.2725 602.71773,615.43349 602.71875,615.6875 C 602.71875,615.9575 602.58877,616.15303 602.34375,616.25 C 602.21475,616.301 602.01199,616.3125 601.75,616.3125 L 601.1875,616.3125 L 601.1875,615.03125 z M 532.8125,617.0625 L 537.90625,617.0625 C 542.47623,617.06251 545.09375,619.33775 545.09375,623.34375 L 545.09375,635.65625 C 545.09373,639.65927 542.47625,641.9375 537.90625,641.9375 L 532.8125,641.9375 C 528.17547,641.93749 525.625,639.71825 525.625,635.65625 L 525.625,623.34375 C 525.62497,619.33772 528.2435,617.0625 532.8125,617.0625 z " style="fill:#000000;fill-opacity:1" id="path4061"/>
  </g>
</svg>