<svg baseProfile="tiny" xmlns="http://www.w3.org/2000/svg" width="143" height="20" viewBox="0 0 143 20"><g><path fill="#C6C7C0" d="M66.715 13.334l-5.29 6.628H39.934c-1.358 0-2.705-.554-3.662-1.515-.96-.957-1.514-2.306-1.514-3.662v-9.57c0-1.356.555-2.705 1.515-3.66.96-.96 2.305-1.518 3.663-1.518h21.494l5.29 6.627 5.29-6.627h21.496c1.36 0 2.704.56 3.66 1.52.96.953 1.52 2.302 1.52 3.66v9.568c0 1.356-.56 2.705-1.52 3.662-.956.96-2.3 1.515-3.66 1.515H72.006l-5.29-6.628zM6.028 15.792c-.332 0-.672-.13-.918-.367-.242-.233-.395-.56-.408-.897-.02-.34.102-.683.318-.936.22-.258.542-.422.88-.455l22.436-2.2c1.265-.123 2.477-.732 3.328-1.678.855-.942 1.343-2.208 1.343-3.48v-.564c0-1.357-.558-2.706-1.516-3.66-.957-.96-2.3-1.52-3.66-1.52H.886v4.176h26.09c.338 0 .678.13.918.364.246.233.397.562.41.896.024.34-.1.682-.32.937-.22.254-.543.42-.88.45L4.67 9.066c-1.265.125-2.474.737-3.33 1.674C.486 11.68 0 12.95 0 14.22v.565c0 1.356.558 2.705 1.512 3.662.96.96 2.307 1.515 3.664 1.515H32.12v-4.17H6.028zm64.733-4.074l3.247 4.066h19.466c.276 0 .54-.113.735-.304.192-.195.298-.462.298-.735V5.248c0-.272-.105-.544-.298-.734-.194-.193-.46-.3-.735-.3H74.018l-3.256 4.07h-8.094l-3.25-4.07h-19.46c-.27 0-.54.106-.732.3-.19.19-.302.462-.302.734v9.51c0 .27.11.54.302.73.192.193.46.305.732.305h19.458l3.25-4.074h8.095zm43.145-2.39c0 1.353.56 2.707 1.517 3.66.962.958 2.312 1.52 3.662 1.52h1.298c1.358 0 2.705-.56 3.667-1.52.953-.953 1.51-2.307 1.51-3.66v-4.08c0-.272.106-.544.3-.734.19-.193.464-.3.735-.3h6.598c.27 0 .537.106.733.3.187.19.302.462.302.734v14.715h4.16l.007-14.746c0-1.357-.554-2.706-1.51-3.66-.963-.96-2.31-1.52-3.66-1.52h-6.658c-1.357 0-2.704.56-3.66 1.52-.96.954-1.52 2.303-1.52 3.66V8.69c0 .433-.178.864-.483 1.17-.305.31-.734.485-1.166.485-.438 0-.87-.177-1.17-.484-.308-.306-.487-.737-.487-1.17V5.216c0-1.357-.555-2.706-1.514-3.66-.96-.96-2.31-1.52-3.666-1.52h-6.65c-1.355 0-2.7.56-3.666 1.52-.956.954-1.512 2.303-1.512 3.66v14.746h4.17V5.248c0-.272.114-.544.305-.734.19-.193.46-.3.73-.3h6.59c.277 0 .547.106.738.3.194.19.302.462.302.734v4.08z"/></g><g fill="#C6C7C0"><path d="M140.876 18.024h.475c.137 0 .24-.027.307-.086.064-.06.103-.138.103-.238 0-.094-.032-.17-.1-.225-.07-.06-.16-.09-.28-.09h-.503v.64zm1.267 1.174h-.403l-.328-.868h-.535v.868h-.38v-2.113h.915c.257 0 .444.058.563.172.117.116.18.264.18.448 0 .27-.126.457-.384.56l.373.933zM142.81 18.14c0-.867-.706-1.573-1.575-1.573-.868 0-1.573.706-1.573 1.573 0 .87.705 1.573 1.573 1.573.877 0 1.576-.712 1.576-1.573m-1.576-1.762c.976 0 1.766.79 1.766 1.762 0 .977-.79 1.763-1.766 1.763-.974 0-1.762-.786-1.762-1.763 0-.98.798-1.762 1.762-1.762"/></g></svg>
